{
	"asset":{
		"generator":"Khronos glTF Blender I/O v4.5.48",
		"version":"2.0"
	},
	"extensionsUsed":[
		"KHR_implicit_shapes",
		"KHR_physics_rigid_bodies"
	],
	"extensions":{
		"KHR_implicit_shapes":{
			"shapes":[
				{
					"type":"cylinder",
					"cylinder":{
						"height":1.51628577709198,
						"radiusBottom":0.1819542646408081,
						"radiusTop":0.1819542646408081
					}
				},
				{
					"type":"cylinder",
					"cylinder":{
						"height":0.30000001192092896,
						"radiusBottom":0.7500001788139343,
						"radiusTop":0.7500001788139343
					}
				},
				{
					"type":"cylinder",
					"cylinder":{
						"height":0.6065142750740051,
						"radiusBottom":0.07278171181678772,
						"radiusTop":0.07278171181678772
					}
				},
				{
					"type":"cylinder",
					"cylinder":{
						"height":1.504065990447998,
						"radiusBottom":0.07278174161911011,
						"radiusTop":0.07278174161911011
					}
				},
				{
					"type":"cylinder",
					"cylinder":{
						"height":0.30000004172325134,
						"radiusBottom":1.800000548362732,
						"radiusTop":1.800000548362732
					}
				},
				{
					"type":"box",
					"box":{
						"size":[
							1.3070383071899414,
							3.6563425064086914,
							6.149166107177734
						]
					}
				},
				{
					"type":"box",
					"box":{
						"size":[
							2,
							3.6600000858306885,
							13.600000381469727
						]
					}
				}
			]
		},
		"KHR_physics_rigid_bodies":{
			"physicsMaterials":[
				{
					"staticFriction":0.5,
					"dynamicFriction":0.5,
					"restitution":0
				},
				{
					"staticFriction":0.5,
					"dynamicFriction":0.5,
					"restitution":0.2714286148548126
				},
				{
					"staticFriction":0.5,
					"dynamicFriction":0.5,
					"restitution":0.1952381134033203
				},
				{
					"staticFriction":0.5,
					"dynamicFriction":0.5,
					"restitution":0.18571430444717407
				},
				{
					"staticFriction":0.5,
					"dynamicFriction":0.5,
					"restitution":0.1904761791229248
				},
				{
					"staticFriction":0.5,
					"dynamicFriction":0.5,
					"restitution":0.7428571581840515
				},
				{
					"staticFriction":0.5,
					"dynamicFriction":0.5,
					"restitution":0.30000001192092896
				},
				{
					"staticFriction":0.5,
					"dynamicFriction":0.5,
					"restitution":0.6095238327980042
				},
				{
					"staticFriction":0.5,
					"dynamicFriction":0.5,
					"restitution":0.6952381134033203
				},
				{
					"staticFriction":0.5,
					"dynamicFriction":0.5,
					"restitution":0.699999988079071
				}
			],
			"collisionFilters":[
				{
					"collisionSystems":[
						"System_0"
					],
					"collideWithSystems":[
						"System_0"
					]
				}
			],
			"physicsJoints":[
				{
					"limits":[
						{
							"linearAxes":[
								0,
								2,
								1
							],
							"min":0,
							"max":0
						},
						{
							"angularAxes":[
								0,
								2
							],
							"min":0,
							"max":0
						}
					]
				},
				{
					"limits":[
						{
							"angularAxes":[
								0,
								2,
								1
							],
							"min":0,
							"max":0
						},
						{
							"linearAxes":[
								2,
								1
							],
							"min":0,
							"max":0
						}
					]
				}
			]
		}
	},
	"scene":0,
	"scenes":[
		{
			"extras":{
				"khr_physics_scene_viewer_props":{},
				"khr_physics_exporter_props":{
					"reparent_bones":0
				}
			},
			"name":"Scene",
			"nodes":[
				3,
				13,
				18,
				21,
				24,
				35,
				37
			]
		}
	],
	"nodes":[
		{
			"extensions":{
				"KHR_physics_rigid_bodies":{
					"collider":{
						"geometry":{
							"shape":0
						},
						"physicsMaterial":0,
						"collisionFilter":0
					}
				}
			},
			"extras":{
				"khr_physics_extra_props":{
					"non_renderable":1
				}
			},
			"name":"handle",
			"rotation":[
				0,
				0,
				1,
				7.549790126404332e-08
			],
			"translation":[
				0,
				-0.45407071709632874,
				0
			]
		},
		{
			"extensions":{
				"KHR_physics_rigid_bodies":{
					"collider":{
						"geometry":{
							"shape":1
						},
						"physicsMaterial":0,
						"collisionFilter":0
					}
				}
			},
			"extras":{
				"khr_physics_extra_props":{
					"non_renderable":1
				}
			},
			"name":"pinion",
			"translation":[
				0,
				0.45407187938690186,
				0
			]
		},
		{
			"name":"jointSpaceB",
			"rotation":[
				0,
				0,
				0,
				1
			],
			"translation":[
				-3.4281463001661905e-08,
				1.0134158401342575e-08,
				0
			]
		},
		{
			"children":[
				0,
				1,
				2
			],
			"extensions":{
				"KHR_physics_rigid_bodies":{
					"motion":{
						"mass":0.5
					}
				}
			},
			"extras":{
				"khr_physics_extra_props":{}
			},
			"mesh":0,
			"name":"driving_gear",
			"rotation":[
				0,
				0,
				-0.7071068286895752,
				0.7071068286895752
			],
			"translation":[
				-0.4540717303752899,
				-1.0500001907348633,
				-10.149552345275879
			]
		},
		{
			"extensions":{
				"KHR_physics_rigid_bodies":{
					"collider":{
						"geometry":{
							"shape":2
						},
						"physicsMaterial":1,
						"collisionFilter":0
					}
				}
			},
			"extras":{
				"khr_physics_extra_props":{
					"non_renderable":1
				}
			},
			"name":"axis0",
			"rotation":[
				0,
				0,
				-1,
				3.774895773744902e-08
			],
			"translation":[
				0,
				-0.303257018327713,
				0
			]
		},
		{
			"extensions":{
				"KHR_physics_rigid_bodies":{
					"collider":{
						"geometry":{
							"shape":3
						},
						"physicsMaterial":2,
						"collisionFilter":0
					}
				}
			},
			"extras":{
				"khr_physics_extra_props":{
					"non_renderable":1
				}
			},
			"name":"axis1",
			"rotation":[
				0,
				0,
				-1,
				3.774895773744902e-08
			],
			"translation":[
				0,
				0.8720328211784363,
				0
			]
		},
		{
			"mesh":1,
			"name":"physicsMeshDataNode",
			"rotation":[
				0,
				0,
				0,
				1
			],
			"translation":[
				0,
				0,
				0
			]
		},
		{
			"extensions":{
				"KHR_physics_rigid_bodies":{
					"collider":{
						"geometry":{
							"convexHull":true,
							"node":6
						},
						"physicsMaterial":3,
						"collisionFilter":0
					}
				}
			},
			"extras":{
				"khr_physics_extra_props":{
					"non_renderable":1
				}
			},
			"name":"bar",
			"rotation":[
				0,
				0,
				-0.7071068286895752,
				0.7071068286895752
			],
			"translation":[
				2.1745412349700928,
				-0.3729104995727539,
				0
			]
		},
		{
			"extensions":{
				"KHR_physics_rigid_bodies":{
					"collider":{
						"geometry":{
							"shape":4
						},
						"physicsMaterial":4,
						"collisionFilter":0
					}
				}
			},
			"extras":{
				"khr_physics_extra_props":{
					"non_renderable":1
				}
			},
			"name":"cog_flywheel",
			"translation":[
				0,
				-0.007011584937572479,
				0
			]
		},
		{
			"extensions":{},
			"extras":{
				"khr_physics_extra_constraint_props":{}
			},
			"name":"Empty",
			"rotation":[
				0,
				0,
				-1,
				3.774895773744902e-08
			],
			"translation":[
				4.4545745849609375,
				-0.6342102885246277,
				0
			]
		},
		{
			"name":"jointSpaceB",
			"rotation":[
				-0.5000000596046448,
				-0.5,
				-0.4999999701976776,
				0.5
			],
			"translation":[
				6.694085641356651e-08,
				-4.480929851531982,
				3.053593218282913e-07
			]
		},
		{
			"extensions":{
				"KHR_physics_rigid_bodies":{
					"joint":{
						"connectedNode":10,
						"joint":0
					}
				}
			},
			"name":"jointSpaceA",
			"rotation":[
				2.1855694143368964e-08,
				-8.250295194439162e-16,
				-1,
				3.774895773744902e-08
			],
			"translation":[
				4.4545745849609375,
				-0.6342102885246277,
				1.9471563916795276e-07
			]
		},
		{
			"name":"jointSpaceB",
			"rotation":[
				2.1855694143368964e-08,
				-8.250295194439162e-16,
				-1,
				3.774895773744902e-08
			],
			"translation":[
				1.0571672525013995e-14,
				-7.450580596923828e-09,
				0
			]
		},
		{
			"children":[
				4,
				5,
				7,
				8,
				9,
				11,
				12
			],
			"extensions":{
				"KHR_physics_rigid_bodies":{
					"motion":{
						"mass":1
					}
				}
			},
			"extras":{
				"khr_physics_extra_props":{}
			},
			"mesh":2,
			"name":"following_gear",
			"rotation":[
				0,
				0,
				0.7071068286895752,
				0.7071068286895752
			],
			"translation":[
				-0.007011532783508301,
				0,
				-6.985806941986084
			]
		},
		{
			"extensions":{},
			"extras":{
				"khr_physics_extra_constraint_props":{}
			},
			"name":"Empty.001",
			"rotation":[
				-0.5000000596046448,
				-0.5,
				-0.4999999701976776,
				0.5
			],
			"translation":[
				0,
				4.5622148513793945,
				0
			]
		},
		{
			"name":"jointSpaceB",
			"rotation":[
				0.7071067690849304,
				0.7071067690849304,
				-5.338507591545749e-08,
				5.338508302088485e-08
			],
			"translation":[
				0.2612997889518738,
				-4.480929851531982,
				6.726220362907043e-07
			]
		},
		{
			"extensions":{
				"KHR_physics_rigid_bodies":{
					"joint":{
						"connectedNode":15,
						"joint":0
					}
				}
			},
			"name":"jointSpaceA",
			"rotation":[
				-0.5000000596046448,
				-0.5,
				-0.4999999701976776,
				0.5
			],
			"translation":[
				-3.283477099103038e-07,
				4.5622148513793945,
				-8.992908817617717e-08
			]
		},
		{
			"mesh":3,
			"name":"physicsMeshDataNode",
			"rotation":[
				0,
				0,
				0,
				1
			],
			"translation":[
				0,
				0,
				0
			]
		},
		{
			"children":[
				14,
				10,
				16
			],
			"extensions":{
				"KHR_physics_rigid_bodies":{
					"motion":{
						"mass":0.5
					},
					"collider":{
						"geometry":{
							"convexHull":true,
							"node":17
						},
						"physicsMaterial":5,
						"collisionFilter":0
					}
				}
			},
			"extras":{
				"khr_physics_extra_props":{
					"non_renderable":0
				}
			},
			"mesh":3,
			"name":"bar.001",
			"rotation":[
				0.7071068286895752,
				0,
				0,
				0.7071068286895752
			],
			"translation":[
				0.6271988749504089,
				4.4545745849609375,
				-2.5048770904541016
			]
		},
		{
			"name":"jointSpaceB",
			"rotation":[
				0.7071067690849304,
				0.7071067690849304,
				-5.338507591545749e-08,
				5.338508302088485e-08
			],
			"translation":[
				-1.1520204790116395e-09,
				-3.574669449335488e-10,
				-3.979535811993173e-09
			]
		},
		{
			"mesh":4,
			"name":"physicsMeshDataNode",
			"rotation":[
				0,
				0,
				0,
				1
			],
			"translation":[
				0,
				0,
				0
			]
		},
		{
			"children":[
				15,
				19
			],
			"extensions":{
				"KHR_physics_rigid_bodies":{
					"motion":{
						"mass":0.5
					},
					"collider":{
						"geometry":{
							"convexHull":true,
							"node":20
						},
						"physicsMaterial":6,
						"collisionFilter":0
					}
				}
			},
			"extras":{
				"khr_physics_extra_props":{
					"non_renderable":0
				}
			},
			"mesh":4,
			"name":"pointer",
			"rotation":[
				-1,
				0,
				0,
				7.549790126404332e-08
			],
			"translation":[
				0.3658991754055023,
				-0.026355266571044922,
				2.057337760925293
			]
		},
		{
			"name":"jointSpaceB",
			"rotation":[
				-0.5000000596046448,
				-0.4999999403953552,
				0.4999999403953552,
				0.5000000596046448
			],
			"translation":[
				0.4479979872703552,
				2.768550395965576,
				-0.456626832485199
			]
		},
		{
			"mesh":5,
			"name":"physicsMeshDataNode",
			"rotation":[
				0,
				0,
				0,
				1
			],
			"translation":[
				0,
				0,
				0
			]
		},
		{
			"children":[
				22
			],
			"extensions":{
				"KHR_physics_rigid_bodies":{
					"motion":{
						"mass":0.6000000238418579
					},
					"collider":{
						"geometry":{
							"convexHull":true,
							"node":23
						},
						"physicsMaterial":0,
						"collisionFilter":0
					}
				}
			},
			"extras":{
				"khr_physics_extra_props":{
					"non_renderable":0
				}
			},
			"mesh":5,
			"name":"rack",
			"rotation":[
				0.7071068286895752,
				0,
				0,
				0.7071068286895752
			],
			"translation":[
				0.07123809307813644,
				-2.1413958072662354,
				-6.969991207122803
			]
		},
		{
			"extensions":{
				"KHR_physics_rigid_bodies":{
					"collider":{
						"geometry":{
							"shape":5
						},
						"physicsMaterial":7,
						"collisionFilter":0
					}
				}
			},
			"extras":{
				"khr_physics_extra_props":{
					"non_renderable":1
				}
			},
			"name":"Cube.003",
			"rotation":[
				0,
				0,
				0.7071068286895752,
				0.7071068286895752
			],
			"translation":[
				1.8281712532043457,
				-0.3464806377887726,
				-9.882307052612305
			]
		},
		{
			"extensions":{
				"KHR_physics_rigid_bodies":{
					"collider":{
						"geometry":{
							"shape":6
						},
						"physicsMaterial":8,
						"collisionFilter":0
					}
				}
			},
			"extras":{
				"khr_physics_extra_props":{
					"non_renderable":1
				}
			},
			"name":"Cube.004",
			"rotation":[
				0,
				0,
				0.7071068286895752,
				0.7071068286895752
			],
			"translation":[
				1.8300001621246338,
				0,
				0.007723808288574219
			]
		},
		{
			"extensions":{},
			"extras":{
				"khr_physics_extra_constraint_props":{}
			},
			"name":"driving_revolute",
			"translation":[
				1.0236449241638184,
				0.34444329142570496,
				-12.206890106201172
			]
		},
		{
			"extensions":{},
			"extras":{
				"khr_physics_extra_constraint_props":{}
			},
			"name":"following_revolute",
			"translation":[
				-0.02635529264807701,
				0.7915034294128418,
				-9.043144226074219
			]
		},
		{
			"extensions":{},
			"extras":{
				"khr_physics_extra_constraint_props":{}
			},
			"name":"measure",
			"translation":[
				0,
				1.1644141674041748,
				0
			]
		},
		{
			"extensions":{},
			"extras":{
				"khr_physics_extra_constraint_props":{}
			},
			"name":"rack_prismatic",
			"rotation":[
				0.4999999403953552,
				-0.4999999403953552,
				0.5000000596046448,
				0.5000001192092896
			],
			"translation":[
				1.6584137678146362,
				1.3177512884140015,
				-6.2587785720825195
			]
		},
		{
			"extensions":{
				"KHR_physics_rigid_bodies":{
					"joint":{
						"connectedNode":2,
						"joint":0
					}
				}
			},
			"name":"jointSpaceA",
			"rotation":[
				0,
				0,
				5.960464477539063e-08,
				1
			],
			"translation":[
				1.0236449241638184,
				0.34444329142570496,
				-12.206890106201172
			]
		},
		{
			"extensions":{
				"KHR_physics_rigid_bodies":{
					"joint":{
						"connectedNode":12,
						"joint":0
					}
				}
			},
			"name":"jointSpaceA",
			"rotation":[
				0,
				0,
				5.960464477539063e-08,
				1
			],
			"translation":[
				-0.02635529264807701,
				0.7915034294128418,
				-9.043144226074219
			]
		},
		{
			"extensions":{
				"KHR_physics_rigid_bodies":{
					"joint":{
						"connectedNode":19,
						"joint":0
					}
				}
			},
			"name":"jointSpaceA",
			"rotation":[
				0,
				0,
				5.960464477539063e-08,
				1
			],
			"translation":[
				-5.138421954598016e-08,
				1.1644141674041748,
				0
			]
		},
		{
			"extensions":{
				"KHR_physics_rigid_bodies":{
					"joint":{
						"connectedNode":22,
						"joint":1
					}
				}
			},
			"name":"jointSpaceA",
			"rotation":[
				0.4999999403953552,
				-0.4999999403953552,
				0.5000000596046448,
				0.5000001192092896
			],
			"translation":[
				1.6584137678146362,
				1.3177512884140015,
				-6.2587785720825195
			]
		},
		{
			"children":[
				25,
				26,
				27,
				28,
				29,
				30,
				31,
				32,
				33,
				34
			],
			"extensions":{},
			"extras":{
				"khr_physics_extra_props":{}
			},
			"mesh":6,
			"name":"base",
			"rotation":[
				0,
				0,
				-0.7071068286895752,
				0.7071068286895752
			],
			"translation":[
				-0.7985149621963501,
				-0.026355266571044922,
				2.057337760925293
			]
		},
		{
			"mesh":7,
			"name":"physicsMeshDataNode",
			"rotation":[
				0,
				0,
				0,
				1
			],
			"translation":[
				0,
				0,
				0
			]
		},
		{
			"extensions":{
				"KHR_physics_rigid_bodies":{
					"collider":{
						"geometry":{
							"convexHull":true,
							"node":36
						},
						"physicsMaterial":9,
						"collisionFilter":0
					}
				}
			},
			"extras":{
				"khr_physics_extra_props":{}
			},
			"mesh":7,
			"name":"Cube.001",
			"translation":[
				-0.6634829044342041,
				0.43374621868133545,
				-2.4642345905303955
			]
		}
	],
	"meshes":[
		{
			"name":"Cylinder.002",
			"primitives":[
				{
					"attributes":{
						"POSITION":0,
						"NORMAL":1,
						"TEXCOORD_0":2
					},
					"indices":3
				}
			]
		},
		{
			"name":"Cube.002",
			"primitives":[
				{
					"attributes":{
						"POSITION":4,
						"NORMAL":5,
						"TEXCOORD_0":6
					},
					"indices":7
				}
			]
		},
		{
			"name":"Cylinder.008",
			"primitives":[
				{
					"attributes":{
						"POSITION":8,
						"NORMAL":9,
						"TEXCOORD_0":10
					},
					"indices":11
				}
			]
		},
		{
			"name":"Cube.007",
			"primitives":[
				{
					"attributes":{
						"POSITION":12,
						"NORMAL":13,
						"TEXCOORD_0":14
					},
					"indices":7
				}
			]
		},
		{
			"name":"Cube.009",
			"primitives":[
				{
					"attributes":{
						"POSITION":15,
						"NORMAL":16,
						"TEXCOORD_0":17
					},
					"indices":18
				}
			]
		},
		{
			"name":"Cube.013",
			"primitives":[
				{
					"attributes":{
						"POSITION":19,
						"NORMAL":20,
						"TEXCOORD_0":21
					},
					"indices":7
				}
			]
		},
		{
			"name":"Cylinder.004",
			"primitives":[
				{
					"attributes":{
						"POSITION":22,
						"NORMAL":23,
						"TEXCOORD_0":24
					},
					"indices":25
				}
			]
		},
		{
			"name":"Cube.004",
			"primitives":[
				{
					"attributes":{
						"POSITION":26,
						"NORMAL":27,
						"TEXCOORD_0":28
					},
					"indices":29
				}
			]
		}
	],
	"accessors":[
		{
			"bufferView":0,
			"componentType":5126,
			"count":384,
			"max":[
				0.7499997615814209,
				0.6040717363357544,
				0.75
			],
			"min":[
				-0.7500002384185791,
				-1.2122138738632202,
				-0.75
			],
			"type":"VEC3"
		},
		{
			"bufferView":1,
			"componentType":5126,
			"count":384,
			"type":"VEC3"
		},
		{
			"bufferView":2,
			"componentType":5126,
			"count":384,
			"type":"VEC2"
		},
		{
			"bufferView":3,
			"componentType":5123,
			"count":744,
			"type":"SCALAR"
		},
		{
			"bufferView":4,
			"componentType":5126,
			"count":240,
			"max":[
				0.10564983636140823,
				2.4812300205230713,
				0.2011963278055191
			],
			"min":[
				-0.10564986616373062,
				-2.402092218399048,
				-0.20119637250900269
			],
			"type":"VEC3"
		},
		{
			"bufferView":5,
			"componentType":5126,
			"count":240,
			"type":"VEC3"
		},
		{
			"bufferView":6,
			"componentType":5126,
			"count":240,
			"type":"VEC2"
		},
		{
			"bufferView":7,
			"componentType":5123,
			"count":468,
			"type":"SCALAR"
		},
		{
			"bufferView":8,
			"componentType":5126,
			"count":1008,
			"max":[
				4.655771255493164,
				1.6240651607513428,
				1.8000001907348633
			],
			"min":[
				-1.7999999523162842,
				-0.6065141558647156,
				-1.7999999523162842
			],
			"type":"VEC3"
		},
		{
			"bufferView":9,
			"componentType":5126,
			"count":1008,
			"type":"VEC3"
		},
		{
			"bufferView":10,
			"componentType":5126,
			"count":1008,
			"type":"VEC2"
		},
		{
			"bufferView":11,
			"componentType":5123,
			"count":1992,
			"type":"SCALAR"
		},
		{
			"bufferView":12,
			"componentType":5126,
			"count":240,
			"max":[
				0.1056499257683754,
				4.766727924346924,
				0.2011963576078415
			],
			"min":[
				-0.10564997792243958,
				-4.682126522064209,
				-0.20119653642177582
			],
			"type":"VEC3"
		},
		{
			"bufferView":13,
			"componentType":5126,
			"count":240,
			"type":"VEC3"
		},
		{
			"bufferView":14,
			"componentType":5126,
			"count":240,
			"type":"VEC2"
		},
		{
			"bufferView":15,
			"componentType":5126,
			"count":156,
			"max":[
				0.10564994066953659,
				0.20119622349739075,
				0.2011968344449997
			],
			"min":[
				-0.10564983636140823,
				-6.353338241577148,
				-0.20119613409042358
			],
			"type":"VEC3"
		},
		{
			"bufferView":16,
			"componentType":5126,
			"count":156,
			"type":"VEC3"
		},
		{
			"bufferView":17,
			"componentType":5126,
			"count":156,
			"type":"VEC2"
		},
		{
			"bufferView":18,
			"componentType":5123,
			"count":300,
			"type":"SCALAR"
		},
		{
			"bufferView":19,
			"componentType":5126,
			"count":240,
			"max":[
				0.2545238137245178,
				9.453264236450195,
				0.34139484167099
			],
			"min":[
				-0.2545238137245178,
				-9.453878402709961,
				-0.3413948118686676
			],
			"type":"VEC3"
		},
		{
			"bufferView":20,
			"componentType":5126,
			"count":240,
			"type":"VEC3"
		},
		{
			"bufferView":21,
			"componentType":5126,
			"count":240,
			"type":"VEC2"
		},
		{
			"bufferView":22,
			"componentType":5126,
			"count":1166,
			"max":[
				3.6563432216644287,
				1,
				6.807723522186279
			],
			"min":[
				-6.807723045349121,
				-1,
				-12.956890106201172
			],
			"type":"VEC3"
		},
		{
			"bufferView":23,
			"componentType":5126,
			"count":1166,
			"type":"VEC3"
		},
		{
			"bufferView":24,
			"componentType":5126,
			"count":1166,
			"type":"VEC2"
		},
		{
			"bufferView":25,
			"componentType":5123,
			"count":2322,
			"type":"SCALAR"
		},
		{
			"bufferView":26,
			"componentType":5126,
			"count":96,
			"max":[
				1.2531980276107788,
				0.37798449397087097,
				0.3777685761451721
			],
			"min":[
				-1.135032057762146,
				-0.33143842220306396,
				-0.3777685761451721
			],
			"type":"VEC3"
		},
		{
			"bufferView":27,
			"componentType":5126,
			"count":96,
			"type":"VEC3"
		},
		{
			"bufferView":28,
			"componentType":5126,
			"count":96,
			"type":"VEC2"
		},
		{
			"bufferView":29,
			"componentType":5123,
			"count":180,
			"type":"SCALAR"
		}
	],
	"bufferViews":[
		{
			"buffer":0,
			"byteLength":4608,
			"byteOffset":0,
			"target":34962
		},
		{
			"buffer":0,
			"byteLength":4608,
			"byteOffset":4608,
			"target":34962
		},
		{
			"buffer":0,
			"byteLength":3072,
			"byteOffset":9216,
			"target":34962
		},
		{
			"buffer":0,
			"byteLength":1488,
			"byteOffset":12288,
			"target":34963
		},
		{
			"buffer":0,
			"byteLength":2880,
			"byteOffset":13776,
			"target":34962
		},
		{
			"buffer":0,
			"byteLength":2880,
			"byteOffset":16656,
			"target":34962
		},
		{
			"buffer":0,
			"byteLength":1920,
			"byteOffset":19536,
			"target":34962
		},
		{
			"buffer":0,
			"byteLength":936,
			"byteOffset":21456,
			"target":34963
		},
		{
			"buffer":0,
			"byteLength":12096,
			"byteOffset":22392,
			"target":34962
		},
		{
			"buffer":0,
			"byteLength":12096,
			"byteOffset":34488,
			"target":34962
		},
		{
			"buffer":0,
			"byteLength":8064,
			"byteOffset":46584,
			"target":34962
		},
		{
			"buffer":0,
			"byteLength":3984,
			"byteOffset":54648,
			"target":34963
		},
		{
			"buffer":0,
			"byteLength":2880,
			"byteOffset":58632,
			"target":34962
		},
		{
			"buffer":0,
			"byteLength":2880,
			"byteOffset":61512,
			"target":34962
		},
		{
			"buffer":0,
			"byteLength":1920,
			"byteOffset":64392,
			"target":34962
		},
		{
			"buffer":0,
			"byteLength":1872,
			"byteOffset":66312,
			"target":34962
		},
		{
			"buffer":0,
			"byteLength":1872,
			"byteOffset":68184,
			"target":34962
		},
		{
			"buffer":0,
			"byteLength":1248,
			"byteOffset":70056,
			"target":34962
		},
		{
			"buffer":0,
			"byteLength":600,
			"byteOffset":71304,
			"target":34963
		},
		{
			"buffer":0,
			"byteLength":2880,
			"byteOffset":71904,
			"target":34962
		},
		{
			"buffer":0,
			"byteLength":2880,
			"byteOffset":74784,
			"target":34962
		},
		{
			"buffer":0,
			"byteLength":1920,
			"byteOffset":77664,
			"target":34962
		},
		{
			"buffer":0,
			"byteLength":13992,
			"byteOffset":79584,
			"target":34962
		},
		{
			"buffer":0,
			"byteLength":13992,
			"byteOffset":93576,
			"target":34962
		},
		{
			"buffer":0,
			"byteLength":9328,
			"byteOffset":107568,
			"target":34962
		},
		{
			"buffer":0,
			"byteLength":4644,
			"byteOffset":116896,
			"target":34963
		},
		{
			"buffer":0,
			"byteLength":1152,
			"byteOffset":121540,
			"target":34962
		},
		{
			"buffer":0,
			"byteLength":1152,
			"byteOffset":122692,
			"target":34962
		},
		{
			"buffer":0,
			"byteLength":768,
			"byteOffset":123844,
			"target":34962
		},
		{
			"buffer":0,
			"byteLength":360,
			"byteOffset":124612,
			"target":34963
		}
	],
	"buffers":[
		{
			"byteLength":124972,
			"uri":"gear.bin"
		}
	]
}
