{
	"asset":{
		"generator":"Khronos glTF Blender I/O v4.5.48",
		"version":"2.0"
	},
	"extensionsUsed":[
		"KHR_implicit_shapes",
		"KHR_physics_rigid_bodies"
	],
	"extensions":{
		"KHR_implicit_shapes":{
			"shapes":[
				{
					"type":"box",
					"box":{
						"size":[
							14.133338928222656,
							1.4133341312408447,
							14.133338928222656
						]
					}
				},
				{
					"type":"box",
					"box":{
						"size":[
							0.47123563289642334,
							0.7427072525024414,
							2.6369094848632812
						]
					}
				},
				{
					"type":"box",
					"box":{
						"size":[
							0.47123563289642334,
							0.7427071928977966,
							2.6369106769561768
						]
					}
				},
				{
					"type":"box",
					"box":{
						"size":[
							0.47123563289642334,
							0.7427071928977966,
							2.636908531188965
						]
					}
				},
				{
					"type":"box",
					"box":{
						"size":[
							0.47123563289642334,
							0.7427072525024414,
							2.6369106769561768
						]
					}
				},
				{
					"type":"box",
					"box":{
						"size":[
							0.47123563289642334,
							0.7427071928977966,
							2.636909008026123
						]
					}
				},
				{
					"type":"box",
					"box":{
						"size":[
							0.47123563289642334,
							0.7427071928977966,
							2.6369125843048096
						]
					}
				},
				{
					"type":"cylinder",
					"cylinder":{
						"height":5.495402812957764,
						"radiusBottom":0.8281288743019104,
						"radiusTop":0.8281288743019104
					}
				},
				{
					"type":"sphere",
					"sphere":{
						"radius":0.9816464080518762
					}
				}
			]
		},
		"KHR_physics_rigid_bodies":{
			"physicsMaterials":[
				{
					"staticFriction":0.18246445059776306,
					"dynamicFriction":0.18246445059776306,
					"restitution":0.6824644207954407
				},
				{
					"staticFriction":0.5,
					"dynamicFriction":0.5,
					"restitution":0.6777251362800598
				},
				{
					"staticFriction":0.5,
					"dynamicFriction":0.5,
					"restitution":0.7819905281066895
				},
				{
					"staticFriction":0.5,
					"dynamicFriction":0.5,
					"restitution":0.7962085604667664
				},
				{
					"staticFriction":0.5,
					"dynamicFriction":0.5,
					"restitution":0.5402843356132507
				},
				{
					"staticFriction":0.5,
					"dynamicFriction":0.5,
					"restitution":0.6350710988044739
				},
				{
					"staticFriction":0.8554502725601196,
					"dynamicFriction":0.8554502725601196,
					"restitution":0.07109005004167557
				},
				{
					"staticFriction":0.2725118398666382,
					"dynamicFriction":0.2725118398666382,
					"restitution":0.900473952293396
				}
			],
			"collisionFilters":[
				{
					"collisionSystems":[
						"System_0"
					],
					"collideWithSystems":[
						"System_0"
					]
				}
			],
			"physicsJoints":[
				{
					"limits":[
						{
							"linearAxes":[
								0,
								2,
								1
							],
							"min":0,
							"max":0
						}
					]
				}
			]
		}
	},
	"scene":0,
	"scenes":[
		{
			"extras":{
				"khr_physics_scene_viewer_props":{},
				"khr_physics_exporter_props":{
					"reparent_bones":0,
					"enabled":1
				}
			},
			"name":"Scene",
			"nodes":[
				0,
				5,
				9,
				13,
				20,
				24,
				27,
				28,
				29
			]
		}
	],
	"nodes":[
		{
			"extensions":{
				"KHR_physics_rigid_bodies":{
					"collider":{
						"geometry":{
							"shape":0
						},
						"physicsMaterial":0,
						"collisionFilter":0
					}
				}
			},
			"extras":{
				"khr_physics_extra_props":{}
			},
			"mesh":0,
			"name":"Cube.002",
			"translation":[
				1.7434940338134766,
				1.0782899856567383,
				-1.9360573291778564
			]
		},
		{
			"extensions":{},
			"extras":{
				"khr_physics_extra_constraint_props":{}
			},
			"name":"Empty.008",
			"rotation":[
				-0.5000001192092896,
				0,
				0,
				0.8660253286361694
			],
			"translation":[
				0,
				0,
				1.8458373546600342
			]
		},
		{
			"name":"jointSpaceB",
			"rotation":[
				-0.8660253882408142,
				-6.452390977074174e-08,
				4.94683334295587e-08,
				0.4999999403953552
			],
			"translation":[
				6.556510925292969e-07,
				2.86102294921875e-06,
				-1.8458337783813477
			]
		},
		{
			"extensions":{
				"KHR_physics_rigid_bodies":{
					"joint":{
						"connectedNode":2,
						"joint":0,
						"enableCollision":true
					}
				}
			},
			"name":"jointSpaceA",
			"rotation":[
				-0.5000001192092896,
				-8.764499170865747e-08,
				-7.52778905876994e-09,
				0.8660253286361694
			],
			"translation":[
				1.6391277313232422e-06,
				-2.384185791015625e-07,
				1.8458373546600342
			]
		},
		{
			"name":"jointSpaceB",
			"rotation":[
				-0.8660253882408142,
				9.140887868852587e-08,
				-9.140887868852587e-08,
				0.5
			],
			"translation":[
				1.430511474609375e-06,
				-5.960464477539063e-08,
				-1.8458366394042969
			]
		},
		{
			"children":[
				1,
				3,
				4
			],
			"extensions":{
				"KHR_physics_rigid_bodies":{
					"collider":{
						"geometry":{
							"shape":1
						},
						"physicsMaterial":1,
						"collisionFilter":0
					}
				}
			},
			"extras":{
				"khr_physics_extra_props":{}
			},
			"mesh":1,
			"name":"Cube.007",
			"rotation":[
				-0.061687126755714417,
				-0.13086825609207153,
				-0.815998911857605,
				0.5596553087234497
			],
			"translation":[
				1.7434935569763184,
				11.188939094543457,
				-3.0504438877105713
			]
		},
		{
			"extensions":{},
			"extras":{
				"khr_physics_extra_constraint_props":{}
			},
			"name":"Empty.007",
			"rotation":[
				-0.4999999701976776,
				0,
				0,
				0.866025447845459
			],
			"translation":[
				0,
				0,
				1.8458360433578491
			]
		},
		{
			"extensions":{
				"KHR_physics_rigid_bodies":{
					"joint":{
						"connectedNode":4,
						"joint":0,
						"enableCollision":true
					}
				}
			},
			"name":"jointSpaceA",
			"rotation":[
				-0.4999999701976776,
				1.355002154923568e-07,
				-8.603184831201816e-09,
				0.866025447845459
			],
			"translation":[
				1.430511474609375e-06,
				-9.685754776000977e-07,
				1.8458360433578491
			]
		},
		{
			"name":"jointSpaceB",
			"rotation":[
				-0.8660253286361694,
				-1.0753987034206602e-08,
				-1.50555834466104e-08,
				0.5000001788139343
			],
			"translation":[
				1.8477439880371094e-06,
				8.791685104370117e-07,
				-1.8458353281021118
			]
		},
		{
			"children":[
				6,
				7,
				8
			],
			"extensions":{
				"KHR_physics_rigid_bodies":{
					"motion":{
						"mass":1
					},
					"collider":{
						"geometry":{
							"shape":2
						},
						"physicsMaterial":2,
						"collisionFilter":0
					}
				}
			},
			"extras":{
				"khr_physics_extra_props":{}
			},
			"mesh":2,
			"name":"Cube.008",
			"rotation":[
				-0.3332502841949463,
				0.29466426372528076,
				-0.772109866142273,
				0.45383208990097046
			],
			"translation":[
				0.38448047637939453,
				10.948838233947754,
				-5.934325218200684
			]
		},
		{
			"extensions":{},
			"extras":{
				"khr_physics_extra_constraint_props":{}
			},
			"name":"Empty.006",
			"rotation":[
				-0.49999985098838806,
				0,
				0,
				0.8660255074501038
			],
			"translation":[
				0,
				0,
				1.8458378314971924
			]
		},
		{
			"extensions":{
				"KHR_physics_rigid_bodies":{
					"joint":{
						"connectedNode":8,
						"joint":0,
						"enableCollision":true
					}
				}
			},
			"name":"jointSpaceA",
			"rotation":[
				-0.49999985098838806,
				5.914693623765288e-09,
				-1.0753984369671343e-08,
				0.8660255074501038
			],
			"translation":[
				9.238719940185547e-07,
				-9.5367431640625e-07,
				1.8458378314971924
			]
		},
		{
			"name":"jointSpaceB",
			"rotation":[
				-0.8660253882408142,
				-3.226195843808455e-08,
				5.376993428285459e-08,
				0.4999999701976776
			],
			"translation":[
				-7.152557373046875e-07,
				-1.6093254089355469e-06,
				-1.845839023590088
			]
		},
		{
			"children":[
				10,
				11,
				12
			],
			"extensions":{
				"KHR_physics_rigid_bodies":{
					"motion":{
						"mass":1
					},
					"collider":{
						"geometry":{
							"shape":3
						},
						"physicsMaterial":3,
						"collisionFilter":0
					}
				}
			},
			"extras":{
				"khr_physics_extra_props":{}
			},
			"mesh":3,
			"name":"Cube.009",
			"rotation":[
				-0.5155192017555237,
				0.641241729259491,
				-0.5213346481323242,
				0.22640496492385864
			],
			"translation":[
				-2.5872135162353516,
				12.033668518066406,
				-6.396398544311523
			]
		},
		{
			"extensions":{},
			"extras":{
				"khr_physics_extra_constraint_props":{}
			},
			"name":"Empty",
			"rotation":[
				0.70710688829422,
				0,
				0,
				0.7071066498756409
			],
			"translation":[
				0,
				0.4903613328933716,
				0
			]
		},
		{
			"extensions":{},
			"extras":{
				"khr_physics_extra_constraint_props":{}
			},
			"name":"Empty.005",
			"rotation":[
				-0.5,
				0,
				0,
				0.8660253882408142
			],
			"translation":[
				0,
				0,
				1.845834732055664
			]
		},
		{
			"name":"jointSpaceB",
			"rotation":[
				-1.4901161193847656e-08,
				-1.30385160446167e-08,
				-3.818422555923462e-08,
				1
			],
			"translation":[
				-0.06712859869003296,
				0.13765296339988708,
				1.074280023574829
			]
		},
		{
			"extensions":{
				"KHR_physics_rigid_bodies":{
					"joint":{
						"connectedNode":16,
						"joint":0,
						"enableCollision":true
					}
				}
			},
			"name":"jointSpaceA",
			"rotation":[
				0.70710688829422,
				1.1195254501217278e-08,
				1.1853798831396034e-08,
				0.7071066498756409
			],
			"translation":[
				-1.0132789611816406e-06,
				0.4903613328933716,
				-3.2782554626464844e-07
			]
		},
		{
			"extensions":{
				"KHR_physics_rigid_bodies":{
					"joint":{
						"connectedNode":12,
						"joint":0,
						"enableCollision":true
					}
				}
			},
			"name":"jointSpaceA",
			"rotation":[
				-0.5,
				-5.1619135632563484e-08,
				3.548815641352121e-08,
				0.8660253882408142
			],
			"translation":[
				-1.7881393432617188e-06,
				5.960464477539063e-08,
				1.845834732055664
			]
		},
		{
			"name":"jointSpaceB",
			"rotation":[
				-0.8660253882408142,
				-1.150676567363007e-07,
				1.2044465336202848e-07,
				0.5
			],
			"translation":[
				-4.172325134277344e-07,
				7.450580596923828e-07,
				-1.8458353281021118
			]
		},
		{
			"children":[
				14,
				15,
				17,
				18,
				19
			],
			"extensions":{
				"KHR_physics_rigid_bodies":{
					"motion":{
						"mass":1
					},
					"collider":{
						"geometry":{
							"shape":4
						},
						"physicsMaterial":4,
						"collisionFilter":0
					}
				}
			},
			"extras":{
				"khr_physics_extra_props":{}
			},
			"mesh":4,
			"name":"Cube.010",
			"rotation":[
				0.5596553087234497,
				-0.815998911857605,
				0.13086822628974915,
				0.06168713420629501
			],
			"translation":[
				-4.199894905090332,
				13.358600616455078,
				-3.9745893478393555
			]
		},
		{
			"extensions":{},
			"extras":{
				"khr_physics_extra_constraint_props":{}
			},
			"name":"Empty.003",
			"rotation":[
				-0.4999999701976776,
				0,
				0,
				0.8660253882408142
			],
			"translation":[
				0,
				0,
				1.8458383083343506
			]
		},
		{
			"extensions":{
				"KHR_physics_rigid_bodies":{
					"joint":{
						"connectedNode":19,
						"joint":0,
						"enableCollision":true
					}
				}
			},
			"name":"jointSpaceA",
			"rotation":[
				-0.4999999701976776,
				-1.333494310529204e-07,
				4.9468336982272376e-08,
				0.8660253882408142
			],
			"translation":[
				6.556510925292969e-07,
				1.5497207641601562e-06,
				1.8458383083343506
			]
		},
		{
			"name":"jointSpaceB",
			"rotation":[
				-0.8660253882408142,
				-4.301593747868537e-09,
				5.376998291062307e-10,
				0.5
			],
			"translation":[
				2.6263296604156494e-07,
				-6.441026926040649e-06,
				-1.8458352088928223
			]
		},
		{
			"children":[
				21,
				22,
				23
			],
			"extensions":{
				"KHR_physics_rigid_bodies":{
					"motion":{
						"mass":1
					},
					"collider":{
						"geometry":{
							"shape":5
						},
						"physicsMaterial":1,
						"collisionFilter":0
					}
				}
			},
			"extras":{
				"khr_physics_extra_props":{}
			},
			"mesh":5,
			"name":"Cube.011",
			"rotation":[
				0.45383208990097046,
				-0.7721099257469177,
				-0.29466426372528076,
				0.3332502841949463
			],
			"translation":[
				-2.8408803939819336,
				13.598700523376465,
				-1.0907096862792969
			]
		},
		{
			"extensions":{},
			"extras":{
				"khr_physics_extra_constraint_props":{}
			},
			"name":"Empty.009",
			"rotation":[
				-0.5,
				0,
				0,
				0.8660253882408142
			],
			"translation":[
				0,
				0,
				1.845832109451294
			]
		},
		{
			"extensions":{
				"KHR_physics_rigid_bodies":{
					"joint":{
						"connectedNode":23,
						"joint":0,
						"enableCollision":true
					}
				}
			},
			"name":"jointSpaceA",
			"rotation":[
				-0.5,
				-1.5593281332826336e-08,
				1.0753987922385022e-08,
				0.8660253882408142
			],
			"translation":[
				2.630986273288727e-07,
				-1.8700957298278809e-06,
				1.845832109451294
			]
		},
		{
			"children":[
				25,
				2,
				26
			],
			"extensions":{
				"KHR_physics_rigid_bodies":{
					"motion":{
						"mass":1
					},
					"collider":{
						"geometry":{
							"shape":6
						},
						"physicsMaterial":5,
						"collisionFilter":0
					}
				}
			},
			"extras":{
				"khr_physics_extra_props":{}
			},
			"mesh":6,
			"name":"Cube.012",
			"rotation":[
				0.22640500962734222,
				-0.521334707736969,
				-0.641241729259491,
				0.5155192613601685
			],
			"translation":[
				0.1308135986328125,
				12.51386833190918,
				-0.628638505935669
			]
		},
		{
			"extensions":{
				"KHR_physics_rigid_bodies":{
					"motion":{
						"mass":6
					},
					"collider":{
						"geometry":{
							"shape":7
						},
						"physicsMaterial":6,
						"collisionFilter":0
					}
				}
			},
			"extras":{
				"khr_physics_extra_props":{}
			},
			"mesh":7,
			"name":"Cylinder",
			"translation":[
				1.7434935569763184,
				6.6920905113220215,
				-2.9855642318725586
			]
		},
		{
			"children":[
				16
			],
			"extensions":{
				"KHR_physics_rigid_bodies":{
					"motion":{
						"mass":1
					},
					"collider":{
						"geometry":{
							"shape":8
						},
						"physicsMaterial":7,
						"collisionFilter":0
					}
				}
			},
			"extras":{
				"khr_physics_extra_props":{}
			},
			"mesh":8,
			"name":"Sphere",
			"rotation":[
				-0.4393553137779236,
				0.4844605028629303,
				-0.6695362329483032,
				0.3521167039871216
			],
			"translation":[
				-5.685103416442871,
				13.86818790435791,
				-4.052244663238525
			]
		}
	],
	"meshes":[
		{
			"name":"Cube.004",
			"primitives":[
				{
					"attributes":{
						"POSITION":0,
						"NORMAL":1,
						"TEXCOORD_0":2
					},
					"indices":3
				}
			]
		},
		{
			"name":"Cube.009",
			"primitives":[
				{
					"attributes":{
						"POSITION":4,
						"NORMAL":5,
						"TEXCOORD_0":6
					},
					"indices":7
				}
			]
		},
		{
			"name":"Cube.010",
			"primitives":[
				{
					"attributes":{
						"POSITION":8,
						"NORMAL":9,
						"TEXCOORD_0":10
					},
					"indices":7
				}
			]
		},
		{
			"name":"Cube.011",
			"primitives":[
				{
					"attributes":{
						"POSITION":11,
						"NORMAL":12,
						"TEXCOORD_0":13
					},
					"indices":7
				}
			]
		},
		{
			"name":"Cube.012",
			"primitives":[
				{
					"attributes":{
						"POSITION":14,
						"NORMAL":15,
						"TEXCOORD_0":16
					},
					"indices":7
				}
			]
		},
		{
			"name":"Cube.013",
			"primitives":[
				{
					"attributes":{
						"POSITION":17,
						"NORMAL":18,
						"TEXCOORD_0":19
					},
					"indices":7
				}
			]
		},
		{
			"name":"Cube.014",
			"primitives":[
				{
					"attributes":{
						"POSITION":20,
						"NORMAL":21,
						"TEXCOORD_0":22
					},
					"indices":7
				}
			]
		},
		{
			"name":"Cylinder.006",
			"primitives":[
				{
					"attributes":{
						"POSITION":23,
						"NORMAL":24,
						"TEXCOORD_0":25
					},
					"indices":26
				}
			]
		},
		{
			"name":"Sphere",
			"primitives":[
				{
					"attributes":{
						"POSITION":27,
						"NORMAL":28,
						"TEXCOORD_0":29
					},
					"indices":30
				}
			]
		}
	],
	"accessors":[
		{
			"bufferView":0,
			"componentType":5126,
			"count":24,
			"max":[
				7.066669464111328,
				0.7066670656204224,
				7.066669464111328
			],
			"min":[
				-7.066669464111328,
				-0.7066670656204224,
				-7.066669464111328
			],
			"type":"VEC3"
		},
		{
			"bufferView":1,
			"componentType":5126,
			"count":24,
			"type":"VEC3"
		},
		{
			"bufferView":2,
			"componentType":5126,
			"count":24,
			"type":"VEC2"
		},
		{
			"bufferView":3,
			"componentType":5123,
			"count":36,
			"type":"SCALAR"
		},
		{
			"bufferView":4,
			"componentType":5126,
			"count":24,
			"max":[
				0.23561781644821167,
				0.3713536262512207,
				1.3184547424316406
			],
			"min":[
				-0.23561781644821167,
				-0.3713536262512207,
				-1.3184547424316406
			],
			"type":"VEC3"
		},
		{
			"bufferView":5,
			"componentType":5126,
			"count":24,
			"type":"VEC3"
		},
		{
			"bufferView":6,
			"componentType":5126,
			"count":24,
			"type":"VEC2"
		},
		{
			"bufferView":7,
			"componentType":5123,
			"count":36,
			"type":"SCALAR"
		},
		{
			"bufferView":8,
			"componentType":5126,
			"count":24,
			"max":[
				0.23561781644821167,
				0.3713535964488983,
				1.3184542655944824
			],
			"min":[
				-0.23561781644821167,
				-0.3713535964488983,
				-1.3184553384780884
			],
			"type":"VEC3"
		},
		{
			"bufferView":9,
			"componentType":5126,
			"count":24,
			"type":"VEC3"
		},
		{
			"bufferView":10,
			"componentType":5126,
			"count":24,
			"type":"VEC2"
		},
		{
			"bufferView":11,
			"componentType":5126,
			"count":24,
			"max":[
				0.23561781644821167,
				0.3713535964488983,
				1.3184542655944824
			],
			"min":[
				-0.23561781644821167,
				-0.3713535964488983,
				-1.3184542655944824
			],
			"type":"VEC3"
		},
		{
			"bufferView":12,
			"componentType":5126,
			"count":24,
			"type":"VEC3"
		},
		{
			"bufferView":13,
			"componentType":5126,
			"count":24,
			"type":"VEC2"
		},
		{
			"bufferView":14,
			"componentType":5126,
			"count":24,
			"max":[
				0.23561781644821167,
				0.3713536262512207,
				1.318453311920166
			],
			"min":[
				-0.23561781644821167,
				-0.3713536262512207,
				-1.3184553384780884
			],
			"type":"VEC3"
		},
		{
			"bufferView":15,
			"componentType":5126,
			"count":24,
			"type":"VEC3"
		},
		{
			"bufferView":16,
			"componentType":5126,
			"count":24,
			"type":"VEC2"
		},
		{
			"bufferView":17,
			"componentType":5126,
			"count":24,
			"max":[
				0.23561781644821167,
				0.3713535964488983,
				1.3184545040130615
			],
			"min":[
				-0.23561781644821167,
				-0.3713535964488983,
				-1.3184545040130615
			],
			"type":"VEC3"
		},
		{
			"bufferView":18,
			"componentType":5126,
			"count":24,
			"type":"VEC3"
		},
		{
			"bufferView":19,
			"componentType":5126,
			"count":24,
			"type":"VEC2"
		},
		{
			"bufferView":20,
			"componentType":5126,
			"count":24,
			"max":[
				0.23561781644821167,
				0.3713535964488983,
				1.3184523582458496
			],
			"min":[
				-0.23561781644821167,
				-0.3713535964488983,
				-1.3184562921524048
			],
			"type":"VEC3"
		},
		{
			"bufferView":21,
			"componentType":5126,
			"count":24,
			"type":"VEC3"
		},
		{
			"bufferView":22,
			"componentType":5126,
			"count":24,
			"type":"VEC2"
		},
		{
			"bufferView":23,
			"componentType":5126,
			"count":192,
			"max":[
				0.8281288743019104,
				2.747701406478882,
				0.8281288743019104
			],
			"min":[
				-0.8281288743019104,
				-2.747701406478882,
				-0.8281288743019104
			],
			"type":"VEC3"
		},
		{
			"bufferView":24,
			"componentType":5126,
			"count":192,
			"type":"VEC3"
		},
		{
			"bufferView":25,
			"componentType":5126,
			"count":192,
			"type":"VEC2"
		},
		{
			"bufferView":26,
			"componentType":5123,
			"count":372,
			"type":"SCALAR"
		},
		{
			"bufferView":27,
			"componentType":5126,
			"count":1984,
			"max":[
				0.9816461205482483,
				0.9816463589668274,
				0.9816458225250244
			],
			"min":[
				-0.9816454648971558,
				-0.9816463589668274,
				-0.9816464185714722
			],
			"type":"VEC3"
		},
		{
			"bufferView":28,
			"componentType":5126,
			"count":1984,
			"type":"VEC3"
		},
		{
			"bufferView":29,
			"componentType":5126,
			"count":1984,
			"type":"VEC2"
		},
		{
			"bufferView":30,
			"componentType":5123,
			"count":2880,
			"type":"SCALAR"
		}
	],
	"bufferViews":[
		{
			"buffer":0,
			"byteLength":288,
			"byteOffset":0,
			"target":34962
		},
		{
			"buffer":0,
			"byteLength":288,
			"byteOffset":288,
			"target":34962
		},
		{
			"buffer":0,
			"byteLength":192,
			"byteOffset":576,
			"target":34962
		},
		{
			"buffer":0,
			"byteLength":72,
			"byteOffset":768,
			"target":34963
		},
		{
			"buffer":0,
			"byteLength":288,
			"byteOffset":840,
			"target":34962
		},
		{
			"buffer":0,
			"byteLength":288,
			"byteOffset":1128,
			"target":34962
		},
		{
			"buffer":0,
			"byteLength":192,
			"byteOffset":1416,
			"target":34962
		},
		{
			"buffer":0,
			"byteLength":72,
			"byteOffset":1608,
			"target":34963
		},
		{
			"buffer":0,
			"byteLength":288,
			"byteOffset":1680,
			"target":34962
		},
		{
			"buffer":0,
			"byteLength":288,
			"byteOffset":1968,
			"target":34962
		},
		{
			"buffer":0,
			"byteLength":192,
			"byteOffset":2256,
			"target":34962
		},
		{
			"buffer":0,
			"byteLength":288,
			"byteOffset":2448,
			"target":34962
		},
		{
			"buffer":0,
			"byteLength":288,
			"byteOffset":2736,
			"target":34962
		},
		{
			"buffer":0,
			"byteLength":192,
			"byteOffset":3024,
			"target":34962
		},
		{
			"buffer":0,
			"byteLength":288,
			"byteOffset":3216,
			"target":34962
		},
		{
			"buffer":0,
			"byteLength":288,
			"byteOffset":3504,
			"target":34962
		},
		{
			"buffer":0,
			"byteLength":192,
			"byteOffset":3792,
			"target":34962
		},
		{
			"buffer":0,
			"byteLength":288,
			"byteOffset":3984,
			"target":34962
		},
		{
			"buffer":0,
			"byteLength":288,
			"byteOffset":4272,
			"target":34962
		},
		{
			"buffer":0,
			"byteLength":192,
			"byteOffset":4560,
			"target":34962
		},
		{
			"buffer":0,
			"byteLength":288,
			"byteOffset":4752,
			"target":34962
		},
		{
			"buffer":0,
			"byteLength":288,
			"byteOffset":5040,
			"target":34962
		},
		{
			"buffer":0,
			"byteLength":192,
			"byteOffset":5328,
			"target":34962
		},
		{
			"buffer":0,
			"byteLength":2304,
			"byteOffset":5520,
			"target":34962
		},
		{
			"buffer":0,
			"byteLength":2304,
			"byteOffset":7824,
			"target":34962
		},
		{
			"buffer":0,
			"byteLength":1536,
			"byteOffset":10128,
			"target":34962
		},
		{
			"buffer":0,
			"byteLength":744,
			"byteOffset":11664,
			"target":34963
		},
		{
			"buffer":0,
			"byteLength":23808,
			"byteOffset":12408,
			"target":34962
		},
		{
			"buffer":0,
			"byteLength":23808,
			"byteOffset":36216,
			"target":34962
		},
		{
			"buffer":0,
			"byteLength":15872,
			"byteOffset":60024,
			"target":34962
		},
		{
			"buffer":0,
			"byteLength":5760,
			"byteOffset":75896,
			"target":34963
		}
	],
	"buffers":[
		{
			"byteLength":81656,
			"uri":"spherical.bin"
		}
	]
}
