{
	"asset":{
		"generator":"Khronos glTF Blender I/O v4.5.48",
		"version":"2.0"
	},
	"extensionsUsed":[
		"KHR_physics_rigid_bodies",
		"KHR_implicit_shapes"
	],
	"extensions":{
		"KHR_physics_rigid_bodies":{
			"physicsJoints":[
				{
					"limits":[
						{
							"angularAxes":[
								0,
								2,
								1
							],
							"min":0,
							"max":0
						},
						{
							"linearAxes":[
								2,
								1
							],
							"min":0,
							"max":0
						}
					]
				},
				{
					"limits":[
						{
							"linearAxes":[
								0,
								2,
								1
							],
							"min":0,
							"max":0
						},
						{
							"angularAxes":[
								0,
								2
							],
							"min":0,
							"max":0
						}
					]
				},
				{
					"limits":[
						{
							"linearAxes":[
								0
							],
							"min":0,
							"max":0
						},
						{
							"linearAxes":[
								2
							],
							"min":0,
							"max":0
						},
						{
							"linearAxes":[
								1
							],
							"min":0,
							"max":0
						},
						{
							"angularAxes":[
								0
							],
							"min":0,
							"max":0
						},
						{
							"angularAxes":[
								2
							],
							"min":0,
							"max":0
						}
					],
					"drives":[
						{
							"type":"angular",
							"mode":"force",
							"axis":1,
							"positionTarget":0,
							"velocityTarget":0,
							"stiffness":1500,
							"damping":200
						}
					]
				}
			],
			"physicsMaterials":[
				{
					"staticFriction":0.5,
					"dynamicFriction":0.5,
					"restitution":0.5836734771728516
				},
				{
					"staticFriction":0.5,
					"dynamicFriction":0.5,
					"restitution":0
				}
			],
			"collisionFilters":[
				{
					"collisionSystems":[
						"System_0"
					],
					"collideWithSystems":[
						"System_0"
					]
				}
			]
		},
		"KHR_implicit_shapes":{
			"shapes":[
				{
					"type":"box",
					"box":{
						"size":[
							5.411715507507324,
							0.40014946460723877,
							5.411715507507324
						]
					}
				},
				{
					"type":"box",
					"box":{
						"size":[
							3.0934672355651855,
							0.2287350744009018,
							3.0934672355651855
						]
					}
				},
				{
					"type":"box",
					"box":{
						"size":[
							0.7809162139892578,
							0.7809162139892578,
							0.7809162139892578
						]
					}
				}
			]
		}
	},
	"scene":0,
	"scenes":[
		{
			"extras":{
				"khr_physics_scene_viewer_props":{},
				"khr_physics_exporter_props":{}
			},
			"name":"Scene",
			"nodes":[
				6,
				8,
				12,
				15,
				16,
				17
			]
		}
	],
	"nodes":[
		{
			"extensions":{},
			"extras":{
				"khr_physics_extra_constraint_props":{}
			},
			"name":"Empty",
			"rotation":[
				0,
				0,
				0.7071068286895752,
				0.7071068286895752
			],
			"translation":[
				0,
				5.023523330688477,
				0
			]
		},
		{
			"extensions":{},
			"extras":{
				"khr_physics_extra_constraint_props":{}
			},
			"name":"Empty.002",
			"rotation":[
				0,
				0,
				0.7071068286895752,
				0.7071068286895752
			],
			"translation":[
				0,
				0.5375559329986572,
				1.466002345085144
			]
		},
		{
			"name":"jointSpaceB",
			"rotation":[
				0,
				0,
				0.7071067690849304,
				0.7071067690849304
			],
			"translation":[
				0,
				-1.3888320922851562,
				0
			]
		},
		{
			"extensions":{
				"KHR_physics_rigid_bodies":{
					"joint":{
						"connectedNode":2,
						"joint":0,
						"enableCollision":true
					}
				}
			},
			"name":"jointSpaceA",
			"rotation":[
				0,
				0,
				0.7071067690849304,
				0.7071067690849304
			],
			"translation":[
				0,
				5.023523330688477,
				0
			]
		},
		{
			"name":"jointSpaceB",
			"rotation":[
				-0.2943885922431946,
				-0.2943885624408722,
				-0.6429115533828735,
				0.6429116725921631
			],
			"translation":[
				-1.5465259650682128e-07,
				-0.16708940267562866,
				-2.050236940383911
			]
		},
		{
			"extensions":{
				"KHR_physics_rigid_bodies":{
					"joint":{
						"connectedNode":4,
						"joint":1,
						"enableCollision":true
					}
				}
			},
			"name":"jointSpaceA",
			"rotation":[
				0,
				0,
				0.7071067690849304,
				0.7071067690849304
			],
			"translation":[
				6.323328705093445e-08,
				0.5375559329986572,
				1.466002345085144
			]
		},
		{
			"children":[
				0,
				1,
				3,
				5
			],
			"extensions":{
				"KHR_physics_rigid_bodies":{
					"collider":{
						"geometry":{
							"shape":0
						},
						"physicsMaterial":0,
						"collisionFilter":0
					}
				}
			},
			"extras":{
				"khr_physics_extra_props":{}
			},
			"mesh":0,
			"name":"Cube"
		},
		{
			"name":"jointSpaceB",
			"rotation":[
				0,
				0,
				0.7071067690849304,
				0.7071067690849304
			],
			"translation":[
				0,
				9.5367431640625e-07,
				1.773380994796753
			]
		},
		{
			"children":[
				2,
				7
			],
			"extensions":{
				"KHR_physics_rigid_bodies":{
					"motion":{
						"mass":0.5
					},
					"collider":{
						"geometry":{
							"shape":1
						},
						"physicsMaterial":0,
						"collisionFilter":0
					}
				}
			},
			"extras":{
				"khr_physics_extra_props":{}
			},
			"mesh":1,
			"name":"Cube.001",
			"translation":[
				0,
				6.412355422973633,
				0
			]
		},
		{
			"extensions":{},
			"extras":{
				"khr_physics_extra_constraint_props":{}
			},
			"name":"Empty.001",
			"rotation":[
				-0.29438862204551697,
				0.2943885922431946,
				0.6429116129875183,
				0.6429117321968079
			],
			"translation":[
				0,
				0,
				-1.7733815908432007
			]
		},
		{
			"extensions":{
				"KHR_physics_rigid_bodies":{
					"joint":{
						"connectedNode":7,
						"joint":1,
						"enableCollision":true
					}
				}
			},
			"name":"jointSpaceA",
			"rotation":[
				-0.2943885922431946,
				0.2943885624408722,
				0.6429115533828735,
				0.6429116725921631
			],
			"translation":[
				0,
				1.1920928955078125e-07,
				-1.7733815908432007
			]
		},
		{
			"name":"jointSpaceB",
			"rotation":[
				-0.2943885922431946,
				0.2943885624408722,
				0.6429115533828735,
				0.6429116725921631
			],
			"translation":[
				6.323335099978067e-08,
				-0.0037567615509033203,
				2.037038803100586
			]
		},
		{
			"children":[
				9,
				10,
				11
			],
			"extensions":{
				"KHR_physics_rigid_bodies":{
					"motion":{
						"mass":0.5
					},
					"collider":{
						"geometry":{
							"shape":1
						},
						"physicsMaterial":0,
						"collisionFilter":0
					}
				}
			},
			"extras":{
				"khr_physics_extra_props":{}
			},
			"mesh":2,
			"name":"Cube.002",
			"rotation":[
				0.41632840037345886,
				0,
				0,
				0.909214437007904
			],
			"translation":[
				0,
				5.069794178009033,
				2.932004451751709
			]
		},
		{
			"extensions":{},
			"extras":{
				"khr_physics_extra_constraint_props":{
					"use_ang_drive_z":1,
					"ang_z_drive_stiffness":1500.0,
					"ang_z_drive_damping":200.0
				}
			},
			"name":"spring",
			"rotation":[
				-0.29438862204551697,
				-0.2943885922431946,
				-0.6429116129875183,
				0.6429117321968079
			],
			"translation":[
				0,
				-0.003757476806640625,
				2.0370397567749023
			]
		},
		{
			"extensions":{
				"KHR_physics_rigid_bodies":{
					"joint":{
						"connectedNode":11,
						"joint":2,
						"enableCollision":true
					}
				}
			},
			"name":"jointSpaceA",
			"rotation":[
				-0.2943885922431946,
				-0.2943885624408722,
				-0.6429115533828735,
				0.6429116725921631
			],
			"translation":[
				2.964648047054652e-07,
				-0.003757476806640625,
				2.0370397567749023
			]
		},
		{
			"children":[
				13,
				4,
				14
			],
			"extensions":{
				"KHR_physics_rigid_bodies":{
					"motion":{
						"mass":1
					},
					"collider":{
						"geometry":{
							"shape":1
						},
						"physicsMaterial":0,
						"collisionFilter":0
					}
				}
			},
			"extras":{
				"khr_physics_extra_props":{}
			},
			"mesh":3,
			"name":"Cube.003",
			"rotation":[
				0,
				0.41632840037345886,
				0.909214437007904,
				6.864377866122595e-08
			],
			"translation":[
				0,
				1.9805488586425781,
				2.932004451751709
			]
		},
		{
			"extensions":{
				"KHR_physics_rigid_bodies":{
					"motion":{
						"mass":4
					},
					"collider":{
						"geometry":{
							"shape":2
						},
						"physicsMaterial":1,
						"collisionFilter":0
					}
				}
			},
			"extras":{
				"khr_physics_extra_props":{}
			},
			"mesh":4,
			"name":"Cube.004",
			"rotation":[
				-0.39438480138778687,
				0.2418643832206726,
				0.16041043400764465,
				0.8719121217727661
			],
			"translation":[
				0,
				10.184674263000488,
				0.3934208154678345
			]
		},
		{
			"extensions":{
				"KHR_physics_rigid_bodies":{
					"motion":{
						"mass":4
					},
					"collider":{
						"geometry":{
							"shape":2
						},
						"physicsMaterial":1,
						"collisionFilter":0
					}
				}
			},
			"extras":{
				"khr_physics_extra_props":{}
			},
			"mesh":5,
			"name":"Cube.005",
			"rotation":[
				-0.32076236605644226,
				-0.03606494516134262,
				0.07203909754753113,
				0.9437273144721985
			],
			"translation":[
				0,
				10.184674263000488,
				-1.0280400514602661
			]
		}
	],
	"meshes":[
		{
			"name":"Cube",
			"primitives":[
				{
					"attributes":{
						"POSITION":0,
						"NORMAL":1,
						"TEXCOORD_0":2
					},
					"indices":3
				}
			]
		},
		{
			"name":"Cube.009",
			"primitives":[
				{
					"attributes":{
						"POSITION":4,
						"NORMAL":5,
						"TEXCOORD_0":6
					},
					"indices":3
				}
			]
		},
		{
			"name":"Cube.010",
			"primitives":[
				{
					"attributes":{
						"POSITION":7,
						"NORMAL":8,
						"TEXCOORD_0":9
					},
					"indices":3
				}
			]
		},
		{
			"name":"Cube.012",
			"primitives":[
				{
					"attributes":{
						"POSITION":10,
						"NORMAL":11,
						"TEXCOORD_0":12
					},
					"indices":3
				}
			]
		},
		{
			"name":"Cube.014",
			"primitives":[
				{
					"attributes":{
						"POSITION":13,
						"NORMAL":14,
						"TEXCOORD_0":15
					},
					"indices":16
				}
			]
		},
		{
			"name":"Cube.015",
			"primitives":[
				{
					"attributes":{
						"POSITION":17,
						"NORMAL":18,
						"TEXCOORD_0":19
					},
					"indices":16
				}
			]
		}
	],
	"accessors":[
		{
			"bufferView":0,
			"componentType":5126,
			"count":24,
			"max":[
				2.705857753753662,
				0.20007473230361938,
				2.705857753753662
			],
			"min":[
				-2.705857753753662,
				-0.20007473230361938,
				-2.705857753753662
			],
			"type":"VEC3"
		},
		{
			"bufferView":1,
			"componentType":5126,
			"count":24,
			"type":"VEC3"
		},
		{
			"bufferView":2,
			"componentType":5126,
			"count":24,
			"type":"VEC2"
		},
		{
			"bufferView":3,
			"componentType":5123,
			"count":36,
			"type":"SCALAR"
		},
		{
			"bufferView":4,
			"componentType":5126,
			"count":24,
			"max":[
				1.5467336177825928,
				0.1143675372004509,
				1.5467336177825928
			],
			"min":[
				-1.5467336177825928,
				-0.1143675372004509,
				-1.5467336177825928
			],
			"type":"VEC3"
		},
		{
			"bufferView":5,
			"componentType":5126,
			"count":24,
			"type":"VEC3"
		},
		{
			"bufferView":6,
			"componentType":5126,
			"count":24,
			"type":"VEC2"
		},
		{
			"bufferView":7,
			"componentType":5126,
			"count":24,
			"max":[
				1.5467336177825928,
				0.1143675372004509,
				1.5467336177825928
			],
			"min":[
				-1.5467336177825928,
				-0.1143675372004509,
				-1.5467336177825928
			],
			"type":"VEC3"
		},
		{
			"bufferView":8,
			"componentType":5126,
			"count":24,
			"type":"VEC3"
		},
		{
			"bufferView":9,
			"componentType":5126,
			"count":24,
			"type":"VEC2"
		},
		{
			"bufferView":10,
			"componentType":5126,
			"count":24,
			"max":[
				1.5467336177825928,
				0.1143675372004509,
				1.5467336177825928
			],
			"min":[
				-1.5467336177825928,
				-0.1143675372004509,
				-1.5467336177825928
			],
			"type":"VEC3"
		},
		{
			"bufferView":11,
			"componentType":5126,
			"count":24,
			"type":"VEC3"
		},
		{
			"bufferView":12,
			"componentType":5126,
			"count":24,
			"type":"VEC2"
		},
		{
			"bufferView":13,
			"componentType":5126,
			"count":24,
			"max":[
				0.3904581069946289,
				0.3904581069946289,
				0.3904581069946289
			],
			"min":[
				-0.3904581069946289,
				-0.3904581069946289,
				-0.3904581069946289
			],
			"type":"VEC3"
		},
		{
			"bufferView":14,
			"componentType":5126,
			"count":24,
			"type":"VEC3"
		},
		{
			"bufferView":15,
			"componentType":5126,
			"count":24,
			"type":"VEC2"
		},
		{
			"bufferView":16,
			"componentType":5123,
			"count":36,
			"type":"SCALAR"
		},
		{
			"bufferView":17,
			"componentType":5126,
			"count":24,
			"max":[
				0.3904581069946289,
				0.3904581069946289,
				0.3904581069946289
			],
			"min":[
				-0.3904581069946289,
				-0.3904581069946289,
				-0.3904581069946289
			],
			"type":"VEC3"
		},
		{
			"bufferView":18,
			"componentType":5126,
			"count":24,
			"type":"VEC3"
		},
		{
			"bufferView":19,
			"componentType":5126,
			"count":24,
			"type":"VEC2"
		}
	],
	"bufferViews":[
		{
			"buffer":0,
			"byteLength":288,
			"byteOffset":0,
			"target":34962
		},
		{
			"buffer":0,
			"byteLength":288,
			"byteOffset":288,
			"target":34962
		},
		{
			"buffer":0,
			"byteLength":192,
			"byteOffset":576,
			"target":34962
		},
		{
			"buffer":0,
			"byteLength":72,
			"byteOffset":768,
			"target":34963
		},
		{
			"buffer":0,
			"byteLength":288,
			"byteOffset":840,
			"target":34962
		},
		{
			"buffer":0,
			"byteLength":288,
			"byteOffset":1128,
			"target":34962
		},
		{
			"buffer":0,
			"byteLength":192,
			"byteOffset":1416,
			"target":34962
		},
		{
			"buffer":0,
			"byteLength":288,
			"byteOffset":1608,
			"target":34962
		},
		{
			"buffer":0,
			"byteLength":288,
			"byteOffset":1896,
			"target":34962
		},
		{
			"buffer":0,
			"byteLength":192,
			"byteOffset":2184,
			"target":34962
		},
		{
			"buffer":0,
			"byteLength":288,
			"byteOffset":2376,
			"target":34962
		},
		{
			"buffer":0,
			"byteLength":288,
			"byteOffset":2664,
			"target":34962
		},
		{
			"buffer":0,
			"byteLength":192,
			"byteOffset":2952,
			"target":34962
		},
		{
			"buffer":0,
			"byteLength":288,
			"byteOffset":3144,
			"target":34962
		},
		{
			"buffer":0,
			"byteLength":288,
			"byteOffset":3432,
			"target":34962
		},
		{
			"buffer":0,
			"byteLength":192,
			"byteOffset":3720,
			"target":34962
		},
		{
			"buffer":0,
			"byteLength":72,
			"byteOffset":3912,
			"target":34963
		},
		{
			"buffer":0,
			"byteLength":288,
			"byteOffset":3984,
			"target":34962
		},
		{
			"buffer":0,
			"byteLength":288,
			"byteOffset":4272,
			"target":34962
		},
		{
			"buffer":0,
			"byteLength":192,
			"byteOffset":4560,
			"target":34962
		}
	],
	"buffers":[
		{
			"byteLength":4752,
			"uri":"spring.bin"
		}
	]
}
